<mxfile host="app.diagrams.net" agent="Mozilla/5.0 (Windows NT 10.0; Win64; x64) AppleWebKit/537.36 (KHTML, like Gecko) Chrome/130.0.0.0 Safari/537.36" version="24.7.17">
  <diagram name="Side-1" id="vwEAjnNsWWbzTO1r66RN">
    <mxGraphModel dx="1050" dy="556" grid="1" gridSize="10" guides="1" tooltips="1" connect="1" arrows="1" fold="1" page="1" pageScale="1" pageWidth="827" pageHeight="1169" math="0" shadow="0">
      <root>
        <mxCell id="0" />
        <mxCell id="1" parent="0" />
        <mxCell id="Q36UPeP-RK3FTuxxXAmh-3" style="edgeStyle=orthogonalEdgeStyle;rounded=0;orthogonalLoop=1;jettySize=auto;html=1;entryX=0.5;entryY=0;entryDx=0;entryDy=0;" edge="1" parent="1" source="Q36UPeP-RK3FTuxxXAmh-2" target="Q36UPeP-RK3FTuxxXAmh-2">
          <mxGeometry relative="1" as="geometry">
            <mxPoint x="430" y="110" as="targetPoint" />
            <Array as="points">
              <mxPoint x="440" y="160" />
              <mxPoint x="440" y="100" />
              <mxPoint x="360" y="100" />
            </Array>
          </mxGeometry>
        </mxCell>
        <mxCell id="Q36UPeP-RK3FTuxxXAmh-7" style="edgeStyle=orthogonalEdgeStyle;rounded=0;orthogonalLoop=1;jettySize=auto;html=1;entryX=0.5;entryY=0;entryDx=0;entryDy=0;" edge="1" parent="1" source="Q36UPeP-RK3FTuxxXAmh-2" target="Q36UPeP-RK3FTuxxXAmh-6">
          <mxGeometry relative="1" as="geometry" />
        </mxCell>
        <mxCell id="Q36UPeP-RK3FTuxxXAmh-2" value="Rising edge on &#39;acquire trigger&#39;?" style="ellipse;whiteSpace=wrap;html=1;" vertex="1" parent="1">
          <mxGeometry x="300" y="120" width="120" height="80" as="geometry" />
        </mxCell>
        <mxCell id="Q36UPeP-RK3FTuxxXAmh-4" value="No edge detected" style="text;html=1;align=center;verticalAlign=middle;whiteSpace=wrap;rounded=0;" vertex="1" parent="1">
          <mxGeometry x="440" y="110" width="60" height="30" as="geometry" />
        </mxCell>
        <mxCell id="Q36UPeP-RK3FTuxxXAmh-16" style="edgeStyle=orthogonalEdgeStyle;rounded=0;orthogonalLoop=1;jettySize=auto;html=1;entryX=0.5;entryY=0;entryDx=0;entryDy=0;" edge="1" parent="1" source="Q36UPeP-RK3FTuxxXAmh-6" target="Q36UPeP-RK3FTuxxXAmh-15">
          <mxGeometry relative="1" as="geometry" />
        </mxCell>
        <mxCell id="Q36UPeP-RK3FTuxxXAmh-6" value="Set &#39;acquire signal&#39; to ADCs 1 and 2." style="rounded=1;whiteSpace=wrap;html=1;" vertex="1" parent="1">
          <mxGeometry x="300" y="260" width="120" height="60" as="geometry" />
        </mxCell>
        <mxCell id="Q36UPeP-RK3FTuxxXAmh-10" value="" style="endArrow=none;html=1;rounded=0;" edge="1" parent="1">
          <mxGeometry width="50" height="50" relative="1" as="geometry">
            <mxPoint x="370" y="240" as="sourcePoint" />
            <mxPoint x="390" y="240" as="targetPoint" />
          </mxGeometry>
        </mxCell>
        <mxCell id="Q36UPeP-RK3FTuxxXAmh-11" value="" style="endArrow=none;html=1;rounded=0;" edge="1" parent="1">
          <mxGeometry width="50" height="50" relative="1" as="geometry">
            <mxPoint x="390" y="240" as="sourcePoint" />
            <mxPoint x="390" y="210" as="targetPoint" />
          </mxGeometry>
        </mxCell>
        <mxCell id="Q36UPeP-RK3FTuxxXAmh-12" value="" style="endArrow=none;html=1;rounded=0;" edge="1" parent="1">
          <mxGeometry width="50" height="50" relative="1" as="geometry">
            <mxPoint x="390" y="210" as="sourcePoint" />
            <mxPoint x="410" y="210" as="targetPoint" />
          </mxGeometry>
        </mxCell>
        <mxCell id="Q36UPeP-RK3FTuxxXAmh-13" value="" style="endArrow=classic;html=1;rounded=0;" edge="1" parent="1">
          <mxGeometry width="50" height="50" relative="1" as="geometry">
            <mxPoint x="390" y="230" as="sourcePoint" />
            <mxPoint x="390" y="220" as="targetPoint" />
          </mxGeometry>
        </mxCell>
        <mxCell id="Q36UPeP-RK3FTuxxXAmh-14" value="detected" style="text;html=1;align=center;verticalAlign=middle;whiteSpace=wrap;rounded=0;" vertex="1" parent="1">
          <mxGeometry x="390" y="210" width="60" height="30" as="geometry" />
        </mxCell>
        <mxCell id="Q36UPeP-RK3FTuxxXAmh-18" style="edgeStyle=orthogonalEdgeStyle;rounded=0;orthogonalLoop=1;jettySize=auto;html=1;entryX=0.5;entryY=0;entryDx=0;entryDy=0;" edge="1" parent="1" source="Q36UPeP-RK3FTuxxXAmh-15" target="Q36UPeP-RK3FTuxxXAmh-17">
          <mxGeometry relative="1" as="geometry" />
        </mxCell>
        <mxCell id="Q36UPeP-RK3FTuxxXAmh-15" value="CLK data out of ADCs 1 and 2" style="rounded=1;whiteSpace=wrap;html=1;" vertex="1" parent="1">
          <mxGeometry x="300" y="360" width="120" height="60" as="geometry" />
        </mxCell>
        <mxCell id="Q36UPeP-RK3FTuxxXAmh-19" style="edgeStyle=orthogonalEdgeStyle;rounded=0;orthogonalLoop=1;jettySize=auto;html=1;entryX=1;entryY=0;entryDx=0;entryDy=0;" edge="1" parent="1" source="Q36UPeP-RK3FTuxxXAmh-17" target="Q36UPeP-RK3FTuxxXAmh-17">
          <mxGeometry relative="1" as="geometry">
            <mxPoint x="430" y="450" as="targetPoint" />
            <Array as="points">
              <mxPoint x="440" y="500" />
              <mxPoint x="440" y="440" />
              <mxPoint x="402" y="440" />
            </Array>
          </mxGeometry>
        </mxCell>
        <mxCell id="Q36UPeP-RK3FTuxxXAmh-22" style="edgeStyle=orthogonalEdgeStyle;rounded=0;orthogonalLoop=1;jettySize=auto;html=1;entryX=0.5;entryY=0;entryDx=0;entryDy=0;" edge="1" parent="1" source="Q36UPeP-RK3FTuxxXAmh-17" target="Q36UPeP-RK3FTuxxXAmh-21">
          <mxGeometry relative="1" as="geometry" />
        </mxCell>
        <mxCell id="Q36UPeP-RK3FTuxxXAmh-17" value="Is CLK done?" style="ellipse;whiteSpace=wrap;html=1;" vertex="1" parent="1">
          <mxGeometry x="300" y="460" width="120" height="80" as="geometry" />
        </mxCell>
        <mxCell id="Q36UPeP-RK3FTuxxXAmh-20" value="Still CLK&#39;ing" style="text;html=1;align=center;verticalAlign=middle;whiteSpace=wrap;rounded=0;" vertex="1" parent="1">
          <mxGeometry x="440" y="460" width="60" height="30" as="geometry" />
        </mxCell>
        <mxCell id="Q36UPeP-RK3FTuxxXAmh-24" style="edgeStyle=orthogonalEdgeStyle;rounded=0;orthogonalLoop=1;jettySize=auto;html=1;entryX=0.5;entryY=0;entryDx=0;entryDy=0;" edge="1" parent="1" source="Q36UPeP-RK3FTuxxXAmh-21" target="Q36UPeP-RK3FTuxxXAmh-23">
          <mxGeometry relative="1" as="geometry" />
        </mxCell>
        <mxCell id="Q36UPeP-RK3FTuxxXAmh-21" value="Latch sampled data" style="rounded=1;whiteSpace=wrap;html=1;" vertex="1" parent="1">
          <mxGeometry x="300" y="580" width="120" height="60" as="geometry" />
        </mxCell>
        <mxCell id="Q36UPeP-RK3FTuxxXAmh-26" style="edgeStyle=orthogonalEdgeStyle;rounded=0;orthogonalLoop=1;jettySize=auto;html=1;entryX=0;entryY=0.5;entryDx=0;entryDy=0;" edge="1" parent="1" source="Q36UPeP-RK3FTuxxXAmh-23" target="Q36UPeP-RK3FTuxxXAmh-2">
          <mxGeometry relative="1" as="geometry">
            <Array as="points">
              <mxPoint x="260" y="710" />
              <mxPoint x="260" y="160" />
            </Array>
          </mxGeometry>
        </mxCell>
        <mxCell id="Q36UPeP-RK3FTuxxXAmh-23" value="Set &#39;data ready&#39; flag" style="rounded=1;whiteSpace=wrap;html=1;" vertex="1" parent="1">
          <mxGeometry x="300" y="680" width="120" height="60" as="geometry" />
        </mxCell>
        <mxCell id="Q36UPeP-RK3FTuxxXAmh-27" value="CLK&#39;s stopped" style="text;html=1;align=center;verticalAlign=middle;whiteSpace=wrap;rounded=0;" vertex="1" parent="1">
          <mxGeometry x="370" y="540" width="80" height="30" as="geometry" />
        </mxCell>
        <mxCell id="Q36UPeP-RK3FTuxxXAmh-28" value="Return to idle state" style="text;html=1;align=center;verticalAlign=middle;whiteSpace=wrap;rounded=0;" vertex="1" parent="1">
          <mxGeometry x="200" y="710" width="80" height="30" as="geometry" />
        </mxCell>
      </root>
    </mxGraphModel>
  </diagram>
</mxfile>
